<svg xmlns="http://www.w3.org/2000/svg" width="800" height="320" viewBox="0 0 800 320" style="background-color:#f7f4ed">
<rect width="800" height="320" fill="#f7f4ed" rx="6"/>
<text x="400.0" y="26" text-anchor="middle" font-family="system-ui, -apple-system, Segoe UI, sans-serif" font-size="16" font-weight="600" fill="#3b3a36">PyPI Downloads Trend (90 days)</text>
<line x1="60" y1="224.0" x2="770" y2="224.0" stroke="#e0dcd3" stroke-width="1" stroke-dasharray="3,3" />
<line x1="60" y1="178.0" x2="770" y2="178.0" stroke="#e0dcd3" stroke-width="1" stroke-dasharray="3,3" />
<line x1="60" y1="132.0" x2="770" y2="132.0" stroke="#e0dcd3" stroke-width="1" stroke-dasharray="3,3" />
<line x1="60" y1="86.0" x2="770" y2="86.0" stroke="#e0dcd3" stroke-width="1" stroke-dasharray="3,3" />
<line x1="60" y1="40.0" x2="770" y2="40.0" stroke="#e0dcd3" stroke-width="1" stroke-dasharray="3,3" />

<path d="M 60.0 249.8 L 68.0 58.2 L 76.0 93.5 L 83.9 128.1 L 91.9 149.0 L 99.9 139.0 L 107.9 153.4 L 115.8 155.5 L 123.8 208.6 L 131.8 220.3 L 139.8 218.9 L 147.8 223.1 L 155.7 247.8 L 163.7 251.4 L 171.7 251.1 L 179.7 254.0 L 187.6 255.3 L 195.6 259.9 L 203.6 257.0 L 211.6 257.8 L 219.6 254.2 L 227.5 229.1 L 235.5 226.2 L 243.5 224.3 L 251.5 224.9 L 259.4 226.8 L 267.4 226.3 L 275.4 227.5 L 283.4 252.3 L 291.3 252.7 L 299.3 252.2 L 307.3 251.1 L 315.3 249.5 L 323.3 249.0 L 331.2 251.4 L 339.2 234.2 L 347.2 236.5 L 355.2 238.1 L 363.1 239.6 L 371.1 243.1 L 379.1 241.0 L 387.1 240.6 L 395.1 257.4 L 403.0 259.0 L 411.0 258.2 L 419.0 259.0 L 427.0 257.8 L 434.9 257.2 L 442.9 257.1 L 450.9 257.4 L 458.9 256.1 L 466.9 256.8 L 474.8 256.5 L 482.8 257.4 L 490.8 257.2 L 498.8 258.2 L 506.7 259.6 L 514.7 260.5 L 522.7 262.8 L 530.7 262.7 L 538.7 262.4 L 546.6 265.9 L 554.6 265.4 L 562.6 262.0 L 570.6 262.2 L 578.5 261.9 L 586.5 262.6 L 594.5 263.0 L 602.5 259.0 L 610.4 257.1 L 618.4 260.2 L 626.4 258.4 L 634.4 255.7 L 642.4 255.1 L 650.3 253.6 L 658.3 258.4 L 666.3 260.3 L 674.3 258.9 L 682.2 260.2 L 690.2 262.8 L 698.2 263.0 L 706.2 264.6 L 714.2 261.9 L 722.1 259.6 L 730.1 261.3 L 738.1 261.9 L 746.1 262.5 L 754.0 262.7 L 762.0 262.9 L 770.0 265.7 L 770.0 270.0 L 60.0 270.0 Z" fill="rgba(193, 122, 69, 0.12)" stroke="none"/>
<path d="M 60.0 249.8 L 68.0 58.2 L 76.0 93.5 L 83.9 128.1 L 91.9 149.0 L 99.9 139.0 L 107.9 153.4 L 115.8 155.5 L 123.8 208.6 L 131.8 220.3 L 139.8 218.9 L 147.8 223.1 L 155.7 247.8 L 163.7 251.4 L 171.7 251.1 L 179.7 254.0 L 187.6 255.3 L 195.6 259.9 L 203.6 257.0 L 211.6 257.8 L 219.6 254.2 L 227.5 229.1 L 235.5 226.2 L 243.5 224.3 L 251.5 224.9 L 259.4 226.8 L 267.4 226.3 L 275.4 227.5 L 283.4 252.3 L 291.3 252.7 L 299.3 252.2 L 307.3 251.1 L 315.3 249.5 L 323.3 249.0 L 331.2 251.4 L 339.2 234.2 L 347.2 236.5 L 355.2 238.1 L 363.1 239.6 L 371.1 243.1 L 379.1 241.0 L 387.1 240.6 L 395.1 257.4 L 403.0 259.0 L 411.0 258.2 L 419.0 259.0 L 427.0 257.8 L 434.9 257.2 L 442.9 257.1 L 450.9 257.4 L 458.9 256.1 L 466.9 256.8 L 474.8 256.5 L 482.8 257.4 L 490.8 257.2 L 498.8 258.2 L 506.7 259.6 L 514.7 260.5 L 522.7 262.8 L 530.7 262.7 L 538.7 262.4 L 546.6 265.9 L 554.6 265.4 L 562.6 262.0 L 570.6 262.2 L 578.5 261.9 L 586.5 262.6 L 594.5 263.0 L 602.5 259.0 L 610.4 257.1 L 618.4 260.2 L 626.4 258.4 L 634.4 255.7 L 642.4 255.1 L 650.3 253.6 L 658.3 258.4 L 666.3 260.3 L 674.3 258.9 L 682.2 260.2 L 690.2 262.8 L 698.2 263.0 L 706.2 264.6 L 714.2 261.9 L 722.1 259.6 L 730.1 261.3 L 738.1 261.9 L 746.1 262.5 L 754.0 262.7 L 762.0 262.9 L 770.0 265.7" fill="none" stroke="#c17a45" stroke-width="2.5" stroke-linecap="round" stroke-linejoin="round"/>
<text x="50" y="274.0" text-anchor="end" font-family="system-ui, -apple-system, Segoe UI, sans-serif" font-size="11" fill="#5c5a55">0</text>
<text x="50" y="228.0" text-anchor="end" font-family="system-ui, -apple-system, Segoe UI, sans-serif" font-size="11" fill="#5c5a55">100</text>
<text x="50" y="182.0" text-anchor="end" font-family="system-ui, -apple-system, Segoe UI, sans-serif" font-size="11" fill="#5c5a55">200</text>
<text x="50" y="136.0" text-anchor="end" font-family="system-ui, -apple-system, Segoe UI, sans-serif" font-size="11" fill="#5c5a55">300</text>
<text x="50" y="90.0" text-anchor="end" font-family="system-ui, -apple-system, Segoe UI, sans-serif" font-size="11" fill="#5c5a55">400</text>
<text x="50" y="44.0" text-anchor="end" font-family="system-ui, -apple-system, Segoe UI, sans-serif" font-size="11" fill="#5c5a55">500</text>
<text x="60.0" y="292" text-anchor="middle" font-family="system-ui, -apple-system, Segoe UI, sans-serif" font-size="11" fill="#5c5a55">Jun 17</text>
<text x="203.59550561797752" y="292" text-anchor="middle" font-family="system-ui, -apple-system, Segoe UI, sans-serif" font-size="11" fill="#5c5a55">Jul 05</text>
<text x="347.19101123595505" y="292" text-anchor="middle" font-family="system-ui, -apple-system, Segoe UI, sans-serif" font-size="11" fill="#5c5a55">Jul 23</text>
<text x="482.80898876404495" y="292" text-anchor="middle" font-family="system-ui, -apple-system, Segoe UI, sans-serif" font-size="11" fill="#5c5a55">Aug 09</text>
<text x="626.4044943820224" y="292" text-anchor="middle" font-family="system-ui, -apple-system, Segoe UI, sans-serif" font-size="11" fill="#5c5a55">Aug 27</text>
<text x="770.0" y="292" text-anchor="middle" font-family="system-ui, -apple-system, Segoe UI, sans-serif" font-size="11" fill="#5c5a55">Sep 14</text>
<line x1="60" y1="40" x2="60" y2="270" stroke="#e0dcd3" stroke-width="1"/>
<line x1="60" y1="270" x2="770" y2="270" stroke="#e0dcd3" stroke-width="1"/>
</svg>
