<svg xmlns="http://www.w3.org/2000/svg" width="800" height="320" viewBox="0 0 800 320" style="background-color:#f7f4ed">
<rect width="800" height="320" fill="#f7f4ed" rx="6"/>
<text x="400.0" y="26" text-anchor="middle" font-family="system-ui, -apple-system, Segoe UI, sans-serif" font-size="16" font-weight="600" fill="#3b3a36">PyPI Downloads Trend (90 days)</text>
<line x1="60" y1="224.0" x2="770" y2="224.0" stroke="#e0dcd3" stroke-width="1" stroke-dasharray="3,3" />
<line x1="60" y1="178.0" x2="770" y2="178.0" stroke="#e0dcd3" stroke-width="1" stroke-dasharray="3,3" />
<line x1="60" y1="132.0" x2="770" y2="132.0" stroke="#e0dcd3" stroke-width="1" stroke-dasharray="3,3" />
<line x1="60" y1="86.0" x2="770" y2="86.0" stroke="#e0dcd3" stroke-width="1" stroke-dasharray="3,3" />
<line x1="60" y1="40.0" x2="770" y2="40.0" stroke="#e0dcd3" stroke-width="1" stroke-dasharray="3,3" />

<path d="M 60.0 110.5 L 68.0 177.2 L 76.0 199.0 L 83.9 212.9 L 91.9 218.8 L 99.9 221.2 L 107.9 220.9 L 115.8 236.3 L 123.8 226.6 L 131.8 229.3 L 139.8 217.2 L 147.8 133.5 L 155.7 123.9 L 163.7 117.8 L 171.7 119.7 L 179.7 126.1 L 187.6 124.3 L 195.6 128.3 L 203.6 211.1 L 211.6 212.2 L 219.6 210.6 L 227.5 207.1 L 235.5 201.7 L 243.5 200.1 L 251.5 208.0 L 259.4 150.6 L 267.4 158.3 L 275.4 163.5 L 283.4 168.6 L 291.3 180.2 L 299.3 173.4 L 307.3 172.1 L 315.3 228.2 L 323.3 233.2 L 331.2 230.8 L 339.2 233.2 L 347.2 229.5 L 355.2 227.3 L 363.1 226.8 L 371.1 227.9 L 379.1 223.6 L 387.1 226.0 L 395.1 225.1 L 403.0 227.9 L 411.0 227.3 L 419.0 230.8 L 427.0 235.4 L 434.9 238.5 L 442.9 245.9 L 450.9 245.7 L 458.9 244.8 L 466.9 256.2 L 474.8 254.7 L 482.8 243.5 L 490.8 244.2 L 498.8 242.8 L 506.7 245.2 L 514.7 246.6 L 522.7 233.2 L 530.7 226.8 L 538.7 237.4 L 546.6 231.4 L 554.6 222.5 L 562.6 220.3 L 570.6 215.2 L 578.5 231.2 L 586.5 237.6 L 594.5 233.0 L 602.5 237.4 L 610.4 245.9 L 618.4 246.6 L 626.4 252.0 L 634.4 243.1 L 642.4 235.2 L 650.3 240.9 L 658.3 242.8 L 666.3 245.0 L 674.3 245.7 L 682.2 246.3 L 690.2 250.5 L 698.2 246.8 L 706.2 243.1 L 714.2 243.7 L 722.1 244.4 L 730.1 245.0 L 738.1 244.6 L 746.1 249.2 L 754.0 260.1 L 762.0 263.9 L 770.0 264.5 L 770.0 270.0 L 60.0 270.0 Z" fill="rgba(193, 122, 69, 0.12)" stroke="none"/>
<path d="M 60.0 110.5 L 68.0 177.2 L 76.0 199.0 L 83.9 212.9 L 91.9 218.8 L 99.9 221.2 L 107.9 220.9 L 115.8 236.3 L 123.8 226.6 L 131.8 229.3 L 139.8 217.2 L 147.8 133.5 L 155.7 123.9 L 163.7 117.8 L 171.7 119.7 L 179.7 126.1 L 187.6 124.3 L 195.6 128.3 L 203.6 211.1 L 211.6 212.2 L 219.6 210.6 L 227.5 207.1 L 235.5 201.7 L 243.5 200.1 L 251.5 208.0 L 259.4 150.6 L 267.4 158.3 L 275.4 163.5 L 283.4 168.6 L 291.3 180.2 L 299.3 173.4 L 307.3 172.1 L 315.3 228.2 L 323.3 233.2 L 331.2 230.8 L 339.2 233.2 L 347.2 229.5 L 355.2 227.3 L 363.1 226.8 L 371.1 227.9 L 379.1 223.6 L 387.1 226.0 L 395.1 225.1 L 403.0 227.9 L 411.0 227.3 L 419.0 230.8 L 427.0 235.4 L 434.9 238.5 L 442.9 245.9 L 450.9 245.7 L 458.9 244.8 L 466.9 256.2 L 474.8 254.7 L 482.8 243.5 L 490.8 244.2 L 498.8 242.8 L 506.7 245.2 L 514.7 246.6 L 522.7 233.2 L 530.7 226.8 L 538.7 237.4 L 546.6 231.4 L 554.6 222.5 L 562.6 220.3 L 570.6 215.2 L 578.5 231.2 L 586.5 237.6 L 594.5 233.0 L 602.5 237.4 L 610.4 245.9 L 618.4 246.6 L 626.4 252.0 L 634.4 243.1 L 642.4 235.2 L 650.3 240.9 L 658.3 242.8 L 666.3 245.0 L 674.3 245.7 L 682.2 246.3 L 690.2 250.5 L 698.2 246.8 L 706.2 243.1 L 714.2 243.7 L 722.1 244.4 L 730.1 245.0 L 738.1 244.6 L 746.1 249.2 L 754.0 260.1 L 762.0 263.9 L 770.0 264.5" fill="none" stroke="#c17a45" stroke-width="2.5" stroke-linecap="round" stroke-linejoin="round"/>
<text x="50" y="274.0" text-anchor="end" font-family="system-ui, -apple-system, Segoe UI, sans-serif" font-size="11" fill="#5c5a55">0</text>
<text x="50" y="228.0" text-anchor="end" font-family="system-ui, -apple-system, Segoe UI, sans-serif" font-size="11" fill="#5c5a55">30</text>
<text x="50" y="182.0" text-anchor="end" font-family="system-ui, -apple-system, Segoe UI, sans-serif" font-size="11" fill="#5c5a55">60</text>
<text x="50" y="136.0" text-anchor="end" font-family="system-ui, -apple-system, Segoe UI, sans-serif" font-size="11" fill="#5c5a55">90</text>
<text x="50" y="90.0" text-anchor="end" font-family="system-ui, -apple-system, Segoe UI, sans-serif" font-size="11" fill="#5c5a55">120</text>
<text x="50" y="44.0" text-anchor="end" font-family="system-ui, -apple-system, Segoe UI, sans-serif" font-size="11" fill="#5c5a55">150</text>
<text x="60.0" y="292" text-anchor="middle" font-family="system-ui, -apple-system, Segoe UI, sans-serif" font-size="11" fill="#5c5a55">Jun 27</text>
<text x="203.59550561797752" y="292" text-anchor="middle" font-family="system-ui, -apple-system, Segoe UI, sans-serif" font-size="11" fill="#5c5a55">Jul 15</text>
<text x="347.19101123595505" y="292" text-anchor="middle" font-family="system-ui, -apple-system, Segoe UI, sans-serif" font-size="11" fill="#5c5a55">Aug 02</text>
<text x="482.80898876404495" y="292" text-anchor="middle" font-family="system-ui, -apple-system, Segoe UI, sans-serif" font-size="11" fill="#5c5a55">Aug 19</text>
<text x="626.4044943820224" y="292" text-anchor="middle" font-family="system-ui, -apple-system, Segoe UI, sans-serif" font-size="11" fill="#5c5a55">Sep 06</text>
<text x="770.0" y="292" text-anchor="middle" font-family="system-ui, -apple-system, Segoe UI, sans-serif" font-size="11" fill="#5c5a55">Sep 24</text>
<line x1="60" y1="40" x2="60" y2="270" stroke="#e0dcd3" stroke-width="1"/>
<line x1="60" y1="270" x2="770" y2="270" stroke="#e0dcd3" stroke-width="1"/>
</svg>
